<svg width="178" height="27" viewBox="0 0 178 27" fill="none" xmlns="http://www.w3.org/2000/svg">
<mask id="path-1-outside-1_1_6" maskUnits="userSpaceOnUse" x="0" y="0" width="178" height="27" fill="black">
<rect fill="white" width="178" height="27"/>
<path d="M2.07 26C1.77 26 1.62 25.85 1.62 25.55V22.166C1.62 22.01 1.626 21.884 1.638 21.788C1.662 21.692 1.734 21.614 1.854 21.554L6.57 19.394V16.19L1.926 13.31C1.722 13.19 1.62 13.01 1.62 12.77V6.164C1.62 5.972 1.632 5.834 1.656 5.75C1.68 5.654 1.77 5.552 1.926 5.444L6.66 2.24C6.78 2.168 6.888 2.114 6.984 2.078C7.092 2.03 7.224 2.006 7.38 2.006H12.24C12.54 2.006 12.69 2.156 12.69 2.456V5.516C12.69 5.78 12.6 5.96 12.42 6.056L7.704 8V11.33L12.42 14.03C12.6 14.114 12.69 14.306 12.69 14.606V22.436C12.69 22.532 12.672 22.634 12.636 22.742C12.612 22.85 12.552 22.928 12.456 22.976L6.804 25.784C6.732 25.82 6.642 25.868 6.534 25.928C6.438 25.976 6.342 26 6.246 26H2.07ZM20.9686 26C20.6926 26 20.4526 25.898 20.2486 25.694L16.6486 22.094C16.4446 21.902 16.3426 21.662 16.3426 21.374V10.826C16.3426 10.538 16.4446 10.298 16.6486 10.106L20.2486 6.506C20.4526 6.302 20.6926 6.2 20.9686 6.2H30.5986C30.8986 6.2 31.0486 6.35 31.0486 6.65V25.55C31.0486 25.85 30.8986 26 30.5986 26H26.8546C26.6986 26 26.5786 25.97 26.4946 25.91C26.4226 25.85 26.3386 25.778 26.2426 25.694L25.3426 24.794L24.4426 25.694C24.2506 25.898 24.0106 26 23.7226 26H20.9686ZM23.0746 21.806H24.3346C24.7186 21.806 24.9826 21.728 25.1266 21.572C25.2706 21.416 25.3426 21.14 25.3426 20.744V10.394H23.0746C22.6786 10.394 22.4086 10.472 22.2646 10.628C22.1206 10.784 22.0486 11.06 22.0486 11.456V20.744C22.0486 21.14 22.1206 21.416 22.2646 21.572C22.4086 21.728 22.6786 21.806 23.0746 21.806ZM35.692 26C35.392 26 35.242 25.85 35.242 25.55V6.65C35.242 6.35 35.392 6.2 35.692 6.2H45.322C45.598 6.2 45.838 6.302 46.042 6.506L49.642 10.106C49.846 10.298 49.948 10.538 49.948 10.826V25.55C49.948 25.85 49.798 26 49.498 26H44.692C44.392 26 44.242 25.85 44.242 25.55V11.546C44.242 10.982 43.96 10.7 43.396 10.7H40.948V25.55C40.948 25.85 40.798 26 40.498 26H35.692ZM58.6561 26C58.3801 26 58.1401 25.898 57.9361 25.694L54.3361 22.094C54.1321 21.902 54.0301 21.662 54.0301 21.374V10.826C54.0301 10.538 54.1321 10.298 54.3361 10.106L57.9361 6.506C58.1401 6.302 58.3801 6.2 58.6561 6.2H61.4101C61.6981 6.2 61.9381 6.302 62.1301 6.506L63.0301 7.406V2.456C63.0301 2.156 63.1801 2.006 63.4801 2.006H68.2861C68.5861 2.006 68.7361 2.156 68.7361 2.456V25.55C68.7361 25.85 68.5861 26 68.2861 26H64.5421C64.3861 26 64.2661 25.97 64.1821 25.91C64.1101 25.85 64.0261 25.778 63.9301 25.694L63.0301 24.794L62.1301 25.694C61.9381 25.898 61.6981 26 61.4101 26H58.6561ZM60.7621 21.806H62.0221C62.4061 21.806 62.6701 21.728 62.8141 21.572C62.9581 21.416 63.0301 21.14 63.0301 20.744V10.394H60.7621C60.3661 10.394 60.0961 10.472 59.9521 10.628C59.8081 10.784 59.7361 11.06 59.7361 11.456V20.744C59.7361 21.14 59.8081 21.416 59.9521 21.572C60.0961 21.728 60.3661 21.806 60.7621 21.806ZM77.4295 26C77.1535 26 76.9135 25.898 76.7095 25.694L73.1095 22.094C72.9055 21.902 72.8035 21.662 72.8035 21.374V6.65C72.8035 6.35 72.9535 6.2 73.2535 6.2H78.0595C78.3595 6.2 78.5095 6.35 78.5095 6.65V21.5H81.5155V6.65C81.5155 6.35 81.6655 6.2 81.9655 6.2H86.7535C87.0535 6.2 87.2035 6.35 87.2035 6.65V21.5H90.2095V6.65C90.2095 6.35 90.3595 6.2 90.6595 6.2H95.4655C95.7655 6.2 95.9155 6.35 95.9155 6.65V21.374C95.9155 21.662 95.8135 21.902 95.6095 22.094L92.0095 25.694C91.8055 25.898 91.5655 26 91.2895 26H87.1855C86.8975 26 86.6575 25.898 86.4655 25.694L84.0355 23.264H84.6835L82.2535 25.694C82.0615 25.898 81.8215 26 81.5335 26H77.4295ZM100.555 26C100.255 26 100.105 25.85 100.105 25.55V6.65C100.105 6.35 100.255 6.2 100.555 6.2H105.343C105.643 6.2 105.793 6.35 105.793 6.65V25.55C105.793 25.85 105.643 26 105.343 26H100.555ZM100.465 4.706C100.225 4.706 100.105 4.586 100.105 4.346V2.06C100.105 1.82 100.225 1.7 100.465 1.7H105.469C105.685 1.7 105.793 1.82 105.793 2.06V4.346C105.793 4.586 105.685 4.706 105.469 4.706H100.465Z"/>
<path d="M110.434 26C110.134 26 109.984 25.85 109.984 25.55V6.65C109.984 6.35 110.134 6.2 110.434 6.2H113.17C113.398 6.2 113.596 6.302 113.764 6.506L115.528 8.54L117.49 6.416C117.622 6.272 117.79 6.2 117.994 6.2H119.938C120.238 6.2 120.388 6.35 120.388 6.65V10.52C120.388 10.712 120.376 10.844 120.352 10.916C120.328 10.976 120.262 11.042 120.154 11.114L115.69 14.408V25.55C115.69 25.85 115.54 26 115.24 26H110.434ZM122.985 26C122.685 26 122.535 25.85 122.535 25.55V6.65C122.535 6.35 122.685 6.2 122.985 6.2H125.721C125.949 6.2 126.147 6.302 126.315 6.506L128.079 8.54L130.041 6.416C130.173 6.272 130.341 6.2 130.545 6.2H132.489C132.789 6.2 132.939 6.35 132.939 6.65V10.52C132.939 10.712 132.927 10.844 132.903 10.916C132.879 10.976 132.813 11.042 132.705 11.114L128.241 14.408V25.55C128.241 25.85 128.091 26 127.791 26H122.985ZM135.536 26C135.236 26 135.086 25.85 135.086 25.55V6.65C135.086 6.35 135.236 6.2 135.536 6.2H140.324C140.624 6.2 140.774 6.35 140.774 6.65V25.55C140.774 25.85 140.624 26 140.324 26H135.536ZM135.446 4.706C135.206 4.706 135.086 4.586 135.086 4.346V2.06C135.086 1.82 135.206 1.7 135.446 1.7H140.45C140.666 1.7 140.774 1.82 140.774 2.06V4.346C140.774 4.586 140.666 4.706 140.45 4.706H135.446ZM145.901 26C145.601 26 145.451 25.85 145.451 25.55V6.614C145.451 6.338 145.547 6.098 145.739 5.894L149.339 2.294C149.543 2.102 149.783 2.006 150.059 2.006H153.929C154.229 2.006 154.379 2.156 154.379 2.456V6.65C154.379 6.95 154.229 7.1 153.929 7.1H151.139V25.55C151.139 25.85 150.989 26 150.689 26H145.901ZM144.335 14.75C144.035 14.75 143.885 14.6 143.885 14.3V11.006C143.885 10.706 144.035 10.556 144.335 10.556H153.929C154.229 10.556 154.379 10.706 154.379 11.006V14.3C154.379 14.6 154.229 14.75 153.929 14.75H144.335ZM158.069 26C157.769 26 157.619 25.85 157.619 25.55V6.65C157.619 6.35 157.769 6.2 158.069 6.2H162.857C163.157 6.2 163.307 6.35 163.307 6.65V25.55C163.307 25.85 163.157 26 162.857 26H158.069ZM157.979 4.706C157.739 4.706 157.619 4.586 157.619 4.346V2.06C157.619 1.82 157.739 1.7 157.979 1.7H162.983C163.199 1.7 163.307 1.82 163.307 2.06V4.346C163.307 4.586 163.199 4.706 162.983 4.706H157.979ZM173.35 26C173.11 26 172.87 25.922 172.63 25.766L169.696 23.786L167.68 20.546C167.596 20.39 167.524 20.288 167.464 20.24C167.404 20.18 167.374 20.06 167.374 19.88V12.32C167.374 12.14 167.398 12.02 167.446 11.96C167.494 11.9 167.572 11.792 167.68 11.636L169.516 8.576L172.63 6.434C172.738 6.362 172.846 6.308 172.954 6.272C173.062 6.224 173.194 6.2 173.35 6.2H176.464C176.764 6.2 176.914 6.35 176.914 6.65V10.016C176.914 10.112 176.902 10.214 176.878 10.322C176.866 10.43 176.812 10.514 176.716 10.574L174.664 11.6L173.08 13.67V18.476L174.754 20.384L176.716 21.626C176.836 21.698 176.896 21.788 176.896 21.896C176.908 21.992 176.914 22.088 176.914 22.184V25.55C176.914 25.85 176.764 26 176.464 26H173.35Z"/>
</mask>
<path d="M2.07 26C1.77 26 1.62 25.85 1.62 25.55V22.166C1.62 22.01 1.626 21.884 1.638 21.788C1.662 21.692 1.734 21.614 1.854 21.554L6.57 19.394V16.19L1.926 13.31C1.722 13.19 1.62 13.01 1.62 12.77V6.164C1.62 5.972 1.632 5.834 1.656 5.75C1.68 5.654 1.77 5.552 1.926 5.444L6.66 2.24C6.78 2.168 6.888 2.114 6.984 2.078C7.092 2.03 7.224 2.006 7.38 2.006H12.24C12.54 2.006 12.69 2.156 12.69 2.456V5.516C12.69 5.78 12.6 5.96 12.42 6.056L7.704 8V11.33L12.42 14.03C12.6 14.114 12.69 14.306 12.69 14.606V22.436C12.69 22.532 12.672 22.634 12.636 22.742C12.612 22.85 12.552 22.928 12.456 22.976L6.804 25.784C6.732 25.82 6.642 25.868 6.534 25.928C6.438 25.976 6.342 26 6.246 26H2.07ZM20.9686 26C20.6926 26 20.4526 25.898 20.2486 25.694L16.6486 22.094C16.4446 21.902 16.3426 21.662 16.3426 21.374V10.826C16.3426 10.538 16.4446 10.298 16.6486 10.106L20.2486 6.506C20.4526 6.302 20.6926 6.2 20.9686 6.2H30.5986C30.8986 6.2 31.0486 6.35 31.0486 6.65V25.55C31.0486 25.85 30.8986 26 30.5986 26H26.8546C26.6986 26 26.5786 25.97 26.4946 25.91C26.4226 25.85 26.3386 25.778 26.2426 25.694L25.3426 24.794L24.4426 25.694C24.2506 25.898 24.0106 26 23.7226 26H20.9686ZM23.0746 21.806H24.3346C24.7186 21.806 24.9826 21.728 25.1266 21.572C25.2706 21.416 25.3426 21.14 25.3426 20.744V10.394H23.0746C22.6786 10.394 22.4086 10.472 22.2646 10.628C22.1206 10.784 22.0486 11.06 22.0486 11.456V20.744C22.0486 21.14 22.1206 21.416 22.2646 21.572C22.4086 21.728 22.6786 21.806 23.0746 21.806ZM35.692 26C35.392 26 35.242 25.85 35.242 25.55V6.65C35.242 6.35 35.392 6.2 35.692 6.2H45.322C45.598 6.2 45.838 6.302 46.042 6.506L49.642 10.106C49.846 10.298 49.948 10.538 49.948 10.826V25.55C49.948 25.85 49.798 26 49.498 26H44.692C44.392 26 44.242 25.85 44.242 25.55V11.546C44.242 10.982 43.96 10.7 43.396 10.7H40.948V25.55C40.948 25.85 40.798 26 40.498 26H35.692ZM58.6561 26C58.3801 26 58.1401 25.898 57.9361 25.694L54.3361 22.094C54.1321 21.902 54.0301 21.662 54.0301 21.374V10.826C54.0301 10.538 54.1321 10.298 54.3361 10.106L57.9361 6.506C58.1401 6.302 58.3801 6.2 58.6561 6.2H61.4101C61.6981 6.2 61.9381 6.302 62.1301 6.506L63.0301 7.406V2.456C63.0301 2.156 63.1801 2.006 63.4801 2.006H68.2861C68.5861 2.006 68.7361 2.156 68.7361 2.456V25.55C68.7361 25.85 68.5861 26 68.2861 26H64.5421C64.3861 26 64.2661 25.97 64.1821 25.91C64.1101 25.85 64.0261 25.778 63.9301 25.694L63.0301 24.794L62.1301 25.694C61.9381 25.898 61.6981 26 61.4101 26H58.6561ZM60.7621 21.806H62.0221C62.4061 21.806 62.6701 21.728 62.8141 21.572C62.9581 21.416 63.0301 21.14 63.0301 20.744V10.394H60.7621C60.3661 10.394 60.0961 10.472 59.9521 10.628C59.8081 10.784 59.7361 11.06 59.7361 11.456V20.744C59.7361 21.14 59.8081 21.416 59.9521 21.572C60.0961 21.728 60.3661 21.806 60.7621 21.806ZM77.4295 26C77.1535 26 76.9135 25.898 76.7095 25.694L73.1095 22.094C72.9055 21.902 72.8035 21.662 72.8035 21.374V6.65C72.8035 6.35 72.9535 6.2 73.2535 6.2H78.0595C78.3595 6.2 78.5095 6.35 78.5095 6.65V21.5H81.5155V6.65C81.5155 6.35 81.6655 6.2 81.9655 6.2H86.7535C87.0535 6.2 87.2035 6.35 87.2035 6.65V21.5H90.2095V6.65C90.2095 6.35 90.3595 6.2 90.6595 6.2H95.4655C95.7655 6.2 95.9155 6.35 95.9155 6.65V21.374C95.9155 21.662 95.8135 21.902 95.6095 22.094L92.0095 25.694C91.8055 25.898 91.5655 26 91.2895 26H87.1855C86.8975 26 86.6575 25.898 86.4655 25.694L84.0355 23.264H84.6835L82.2535 25.694C82.0615 25.898 81.8215 26 81.5335 26H77.4295ZM100.555 26C100.255 26 100.105 25.85 100.105 25.55V6.65C100.105 6.35 100.255 6.2 100.555 6.2H105.343C105.643 6.2 105.793 6.35 105.793 6.65V25.55C105.793 25.85 105.643 26 105.343 26H100.555ZM100.465 4.706C100.225 4.706 100.105 4.586 100.105 4.346V2.06C100.105 1.82 100.225 1.7 100.465 1.7H105.469C105.685 1.7 105.793 1.82 105.793 2.06V4.346C105.793 4.586 105.685 4.706 105.469 4.706H100.465Z" fill="#F2F2F2"/>
<path d="M110.434 26C110.134 26 109.984 25.85 109.984 25.55V6.65C109.984 6.35 110.134 6.2 110.434 6.2H113.17C113.398 6.2 113.596 6.302 113.764 6.506L115.528 8.54L117.49 6.416C117.622 6.272 117.79 6.2 117.994 6.2H119.938C120.238 6.2 120.388 6.35 120.388 6.65V10.52C120.388 10.712 120.376 10.844 120.352 10.916C120.328 10.976 120.262 11.042 120.154 11.114L115.69 14.408V25.55C115.69 25.85 115.54 26 115.24 26H110.434ZM122.985 26C122.685 26 122.535 25.85 122.535 25.55V6.65C122.535 6.35 122.685 6.2 122.985 6.2H125.721C125.949 6.2 126.147 6.302 126.315 6.506L128.079 8.54L130.041 6.416C130.173 6.272 130.341 6.2 130.545 6.2H132.489C132.789 6.2 132.939 6.35 132.939 6.65V10.52C132.939 10.712 132.927 10.844 132.903 10.916C132.879 10.976 132.813 11.042 132.705 11.114L128.241 14.408V25.55C128.241 25.85 128.091 26 127.791 26H122.985ZM135.536 26C135.236 26 135.086 25.85 135.086 25.55V6.65C135.086 6.35 135.236 6.2 135.536 6.2H140.324C140.624 6.2 140.774 6.35 140.774 6.65V25.55C140.774 25.85 140.624 26 140.324 26H135.536ZM135.446 4.706C135.206 4.706 135.086 4.586 135.086 4.346V2.06C135.086 1.82 135.206 1.7 135.446 1.7H140.45C140.666 1.7 140.774 1.82 140.774 2.06V4.346C140.774 4.586 140.666 4.706 140.45 4.706H135.446ZM145.901 26C145.601 26 145.451 25.85 145.451 25.55V6.614C145.451 6.338 145.547 6.098 145.739 5.894L149.339 2.294C149.543 2.102 149.783 2.006 150.059 2.006H153.929C154.229 2.006 154.379 2.156 154.379 2.456V6.65C154.379 6.95 154.229 7.1 153.929 7.1H151.139V25.55C151.139 25.85 150.989 26 150.689 26H145.901ZM144.335 14.75C144.035 14.75 143.885 14.6 143.885 14.3V11.006C143.885 10.706 144.035 10.556 144.335 10.556H153.929C154.229 10.556 154.379 10.706 154.379 11.006V14.3C154.379 14.6 154.229 14.75 153.929 14.75H144.335ZM158.069 26C157.769 26 157.619 25.85 157.619 25.55V6.65C157.619 6.35 157.769 6.2 158.069 6.2H162.857C163.157 6.2 163.307 6.35 163.307 6.65V25.55C163.307 25.85 163.157 26 162.857 26H158.069ZM157.979 4.706C157.739 4.706 157.619 4.586 157.619 4.346V2.06C157.619 1.82 157.739 1.7 157.979 1.7H162.983C163.199 1.7 163.307 1.82 163.307 2.06V4.346C163.307 4.586 163.199 4.706 162.983 4.706H157.979ZM173.35 26C173.11 26 172.87 25.922 172.63 25.766L169.696 23.786L167.68 20.546C167.596 20.39 167.524 20.288 167.464 20.24C167.404 20.18 167.374 20.06 167.374 19.88V12.32C167.374 12.14 167.398 12.02 167.446 11.96C167.494 11.9 167.572 11.792 167.68 11.636L169.516 8.576L172.63 6.434C172.738 6.362 172.846 6.308 172.954 6.272C173.062 6.224 173.194 6.2 173.35 6.2H176.464C176.764 6.2 176.914 6.35 176.914 6.65V10.016C176.914 10.112 176.902 10.214 176.878 10.322C176.866 10.43 176.812 10.514 176.716 10.574L174.664 11.6L173.08 13.67V18.476L174.754 20.384L176.716 21.626C176.836 21.698 176.896 21.788 176.896 21.896C176.908 21.992 176.914 22.088 176.914 22.184V25.55C176.914 25.85 176.764 26 176.464 26H173.35Z" fill="#0DCAF0"/>
<path d="M1.638 21.788L0.667857 21.5455L0.653212 21.604L0.645722 21.664L1.638 21.788ZM1.854 21.554L1.43758 20.6448L1.42206 20.6519L1.40679 20.6596L1.854 21.554ZM6.57 19.394L6.98642 20.3032L7.57 20.0359V19.394H6.57ZM6.57 16.19H7.57V15.6335L7.09704 15.3402L6.57 16.19ZM1.926 13.31L2.45304 12.4602L2.4431 12.454L2.43302 12.4481L1.926 13.31ZM1.656 5.75L2.61752 6.02472L2.6221 6.0087L2.62614 5.99253L1.656 5.75ZM1.926 5.444L1.36547 4.6158L1.35679 4.62181L1.926 5.444ZM6.66 2.24L6.1455 1.38251L6.1221 1.39655L6.0995 1.41184L6.66 2.24ZM6.984 2.078L7.33513 3.01433L7.36296 3.00389L7.39013 2.99181L6.984 2.078ZM12.42 6.056L12.8011 6.98053L12.8469 6.96166L12.8906 6.93835L12.42 6.056ZM7.704 8L7.3229 7.07547L6.704 7.33059V8H7.704ZM7.704 11.33H6.704V11.9098L7.20715 12.1978L7.704 11.33ZM12.42 14.03L11.9231 14.8978L11.9593 14.9186L11.9971 14.9362L12.42 14.03ZM12.636 22.742L11.6873 22.4258L11.671 22.4747L11.6598 22.5251L12.636 22.742ZM12.456 22.976L12.9009 23.8716L12.9032 23.8704L12.456 22.976ZM6.804 25.784L6.35907 24.8884L6.35679 24.8896L6.804 25.784ZM6.534 25.928L6.98121 26.8224L7.00065 26.8127L7.01964 26.8022L6.534 25.928ZM2.07 26V25C2.07414 25 2.26093 25.0017 2.43961 25.1804C2.61829 25.3591 2.62 25.5459 2.62 25.55H1.62H0.62C0.62 25.8541 0.696714 26.2659 1.02539 26.5946C1.35407 26.9233 1.76586 27 2.07 27V26ZM1.62 25.55H2.62V22.166H1.62H0.62V25.55H1.62ZM1.62 22.166H2.62C2.62 22.0297 2.62556 21.9498 2.63028 21.912L1.638 21.788L0.645722 21.664C0.626444 21.8182 0.62 21.9903 0.62 22.166H1.62ZM1.638 21.788L2.60814 22.0305C2.57653 22.157 2.51403 22.2608 2.4448 22.3358C2.38034 22.4056 2.32201 22.438 2.30121 22.4484L1.854 21.554L1.40679 20.6596C1.12351 20.8012 0.785466 21.075 0.667857 21.5455L1.638 21.788ZM1.854 21.554L2.27042 22.4632L6.98642 20.3032L6.57 19.394L6.15358 18.4848L1.43758 20.6448L1.854 21.554ZM6.57 19.394H7.57V16.19H6.57H5.57V19.394H6.57ZM6.57 16.19L7.09704 15.3402L2.45304 12.4602L1.926 13.31L1.39897 14.1598L6.04297 17.0398L6.57 16.19ZM1.926 13.31L2.43302 12.4481C2.46018 12.464 2.51916 12.5084 2.56652 12.592C2.6135 12.6749 2.62 12.7451 2.62 12.77H1.62H0.62C0.62 13.3582 0.904282 13.8692 1.41898 14.1719L1.926 13.31ZM1.62 12.77H2.62V6.164H1.62H0.62V12.77H1.62ZM1.62 6.164H2.62C2.62 6.08679 2.62249 6.03474 2.62524 6.00313C2.62657 5.98784 2.62758 5.98178 2.62736 5.9832C2.62726 5.98378 2.62483 5.99915 2.61752 6.02472L1.656 5.75L0.694477 5.47528C0.6292 5.70375 0.62 5.96282 0.62 6.164H1.62ZM1.656 5.75L2.62614 5.99253C2.58754 6.14696 2.51463 6.23672 2.49134 6.26312C2.46648 6.29129 2.45971 6.29077 2.49521 6.26619L1.926 5.444L1.35679 4.62181C1.16056 4.75766 0.802992 5.03893 0.685857 5.50747L1.656 5.75ZM1.926 5.444L2.4865 6.27215L7.2205 3.06815L6.66 2.24L6.0995 1.41184L1.3655 4.61584L1.926 5.444ZM6.66 2.24L7.1745 3.09749C7.25992 3.04624 7.31212 3.02295 7.33513 3.01433L6.984 2.078L6.63287 1.14167C6.46388 1.20504 6.30008 1.28976 6.1455 1.38251L6.66 2.24ZM6.984 2.078L7.39013 2.99181C7.36243 3.00412 7.34482 3.00752 7.34288 3.00787C7.34126 3.00816 7.35257 3.006 7.38 3.006V2.006V1.006C7.12671 1.006 6.84765 1.04428 6.57787 1.16418L6.984 2.078ZM7.38 2.006V3.006H12.24V2.006V1.006H7.38V2.006ZM12.24 2.006V3.006C12.2359 3.006 12.0491 3.00429 11.8704 2.82561C11.6917 2.64693 11.69 2.46014 11.69 2.456H12.69H13.69C13.69 2.15185 13.6133 1.74007 13.2846 1.41139C12.9559 1.08271 12.5441 1.006 12.24 1.006V2.006ZM12.69 2.456H11.69V5.516H12.69H13.69V2.456H12.69ZM12.69 5.516H11.69C11.69 5.53929 11.6855 5.48701 11.7281 5.40179C11.7772 5.3036 11.8591 5.22181 11.9494 5.17365L12.42 6.056L12.8906 6.93835C13.4949 6.61603 13.69 6.02242 13.69 5.516H12.69ZM12.42 6.056L12.0389 5.13147L7.3229 7.07547L7.704 8L8.08511 8.92453L12.8011 6.98053L12.42 6.056ZM7.704 8H6.704V11.33H7.704H8.704V8H7.704ZM7.704 11.33L7.20715 12.1978L11.9231 14.8978L12.42 14.03L12.9169 13.1622L8.20085 10.4622L7.704 11.33ZM12.42 14.03L11.9971 14.9362C11.9364 14.9078 11.8761 14.8665 11.8233 14.8125C11.7712 14.7593 11.7375 14.7051 11.717 14.6614C11.6795 14.5814 11.69 14.546 11.69 14.606H12.69H13.69C13.69 14.141 13.5403 13.4493 12.8429 13.1238L12.42 14.03ZM12.69 14.606H11.69V22.436H12.69H13.69V14.606H12.69ZM12.69 22.436H11.69C11.69 22.4067 11.6955 22.4013 11.6873 22.4258L12.636 22.742L13.5847 23.0582C13.6485 22.8667 13.69 22.6573 13.69 22.436H12.69ZM12.636 22.742L11.6598 22.5251C11.6756 22.4541 11.7107 22.3624 11.7804 22.2718C11.8506 22.1804 11.9341 22.1189 12.0088 22.0816L12.456 22.976L12.9032 23.8704C13.278 23.683 13.5252 23.3504 13.6122 22.9589L12.636 22.742ZM12.456 22.976L12.0111 22.0804L6.35907 24.8884L6.804 25.784L7.24893 26.6796L12.9009 23.8716L12.456 22.976ZM6.804 25.784L6.35679 24.8896C6.26694 24.9345 6.16311 24.9901 6.04836 25.0538L6.534 25.928L7.01964 26.8022C7.12089 26.7459 7.19706 26.7055 7.25121 26.6784L6.804 25.784ZM6.534 25.928L6.08679 25.0336C6.11307 25.0204 6.16924 25 6.246 25V26V27C6.51476 27 6.76293 26.9316 6.98121 26.8224L6.534 25.928ZM6.246 26V25H2.07V26V27H6.246V26ZM20.2486 25.694L20.9557 24.9869L20.9557 24.9869L20.2486 25.694ZM16.6486 22.094L17.3557 21.3869L17.345 21.3762L17.334 21.3658L16.6486 22.094ZM16.6486 10.106L17.334 10.8342L17.345 10.8238L17.3557 10.8131L16.6486 10.106ZM20.2486 6.506L19.5415 5.79889L19.5415 5.79889L20.2486 6.506ZM26.4946 25.91L25.8544 26.6782L25.883 26.7021L25.9134 26.7237L26.4946 25.91ZM26.2426 25.694L25.5355 26.4011L25.559 26.4246L25.5841 26.4466L26.2426 25.694ZM25.3426 24.794L26.0497 24.0869L25.3426 23.3798L24.6355 24.0869L25.3426 24.794ZM24.4426 25.694L23.7355 24.9869L23.7248 24.9976L23.7144 25.0086L24.4426 25.694ZM25.1266 21.572L24.3918 20.8937L24.3918 20.8937L25.1266 21.572ZM25.3426 10.394H26.3426V9.394H25.3426V10.394ZM22.2646 10.628L22.9994 11.3063L22.9994 11.3063L22.2646 10.628ZM22.2646 21.572L22.9994 20.8937L22.9994 20.8937L22.2646 21.572ZM20.9686 26V25C20.9615 25 20.9598 24.9994 20.9623 24.9999C20.9648 25.0004 20.9687 25.0015 20.9727 25.0032C20.9767 25.0048 20.9778 25.0059 20.9758 25.0045C20.9736 25.003 20.9668 24.9979 20.9557 24.9869L20.2486 25.694L19.5415 26.4011C19.9236 26.7832 20.4143 27 20.9686 27V26ZM20.2486 25.694L20.9557 24.9869L17.3557 21.3869L16.6486 22.094L15.9415 22.8011L19.5415 26.4011L20.2486 25.694ZM16.6486 22.094L17.334 21.3658C17.3286 21.3607 17.3284 21.3596 17.3307 21.363C17.3332 21.3665 17.3365 21.372 17.3394 21.3789C17.3423 21.3856 17.3434 21.3903 17.3436 21.3913C17.3437 21.3921 17.3426 21.3868 17.3426 21.374H16.3426H15.3426C15.3426 21.929 15.5522 22.4353 15.9632 22.8222L16.6486 22.094ZM16.3426 21.374H17.3426V10.826H16.3426H15.3426V21.374H16.3426ZM16.3426 10.826H17.3426C17.3426 10.8132 17.3437 10.8079 17.3436 10.8087C17.3434 10.8097 17.3423 10.8144 17.3394 10.8211C17.3365 10.828 17.3332 10.8335 17.3307 10.837C17.3284 10.8404 17.3286 10.8393 17.334 10.8342L16.6486 10.106L15.9632 9.3778C15.5522 9.76468 15.3426 10.271 15.3426 10.826H16.3426ZM16.6486 10.106L17.3557 10.8131L20.9557 7.21311L20.2486 6.506L19.5415 5.79889L15.9415 9.39889L16.6486 10.106ZM20.2486 6.506L20.9557 7.21311C20.9668 7.20205 20.9736 7.19702 20.9758 7.19552C20.9778 7.19413 20.9767 7.19515 20.9727 7.19683C20.9687 7.19854 20.9648 7.19963 20.9623 7.20014C20.9598 7.20062 20.9615 7.2 20.9686 7.2V6.2V5.2C20.4143 5.2 19.9236 5.41682 19.5415 5.79889L20.2486 6.506ZM20.9686 6.2V7.2H30.5986V6.2V5.2H20.9686V6.2ZM30.5986 6.2V7.2C30.5945 7.2 30.4077 7.19829 30.229 7.01961C30.0503 6.84093 30.0486 6.65414 30.0486 6.65H31.0486H32.0486C32.0486 6.34585 31.9719 5.93407 31.6432 5.60539C31.3145 5.27671 30.9027 5.2 30.5986 5.2V6.2ZM31.0486 6.65H30.0486V25.55H31.0486H32.0486V6.65H31.0486ZM31.0486 25.55H30.0486C30.0486 25.5459 30.0503 25.3591 30.229 25.1804C30.4077 25.0017 30.5945 25 30.5986 25V26V27C30.9027 27 31.3145 26.9233 31.6432 26.5946C31.9719 26.2659 32.0486 25.8541 32.0486 25.55H31.0486ZM30.5986 26V25H26.8546V26V27H30.5986V26ZM26.8546 26V25C26.8382 25 26.8533 24.9982 26.8901 25.0074C26.9283 25.0169 26.9977 25.0404 27.0758 25.0963L26.4946 25.91L25.9134 26.7237C26.2336 26.9525 26.5906 27 26.8546 27V26ZM26.4946 25.91L27.1348 25.1418C27.0707 25.0884 26.993 25.0219 26.9011 24.9414L26.2426 25.694L25.5841 26.4466C25.6841 26.5341 25.7745 26.6116 25.8544 26.6782L26.4946 25.91ZM26.2426 25.694L26.9497 24.9869L26.0497 24.0869L25.3426 24.794L24.6355 25.5011L25.5355 26.4011L26.2426 25.694ZM25.3426 24.794L24.6355 24.0869L23.7355 24.9869L24.4426 25.694L25.1497 26.4011L26.0497 25.5011L25.3426 24.794ZM24.4426 25.694L23.7144 25.0086C23.7093 25.014 23.7082 25.0142 23.7116 25.0119C23.7151 25.0094 23.7206 25.0061 23.7275 25.0032C23.7342 25.0003 23.7389 24.9992 23.7399 24.999C23.7407 24.9989 23.7354 25 23.7226 25V26V27C24.2776 27 24.7839 26.7904 25.1708 26.3794L24.4426 25.694ZM23.7226 26V25H20.9686V26V27H23.7226V26ZM23.0746 21.806V22.806H24.3346V21.806V20.806H23.0746V21.806ZM24.3346 21.806V22.806C24.7895 22.806 25.4223 22.726 25.8614 22.2503L25.1266 21.572L24.3918 20.8937C24.4734 20.8053 24.5464 20.7858 24.5372 20.7885C24.5336 20.7896 24.516 20.7943 24.4806 20.7985C24.4454 20.8028 24.3974 20.806 24.3346 20.806V21.806ZM25.1266 21.572L25.8614 22.2503C26.2726 21.8048 26.3426 21.1983 26.3426 20.744H25.3426H24.3426C24.3426 20.8871 24.329 20.9649 24.321 20.9956C24.3128 21.027 24.3207 20.9707 24.3918 20.8937L25.1266 21.572ZM25.3426 20.744H26.3426V10.394H25.3426H24.3426V20.744H25.3426ZM25.3426 10.394V9.394H23.0746V10.394V11.394H25.3426V10.394ZM23.0746 10.394V9.394C22.619 9.394 21.973 9.46952 21.5298 9.94972L22.2646 10.628L22.9994 11.3063C22.9137 11.3991 22.8377 11.4175 22.8526 11.4132C22.8585 11.4115 22.8788 11.4064 22.9175 11.4018C22.956 11.3973 23.0077 11.394 23.0746 11.394V10.394ZM22.2646 10.628L21.5298 9.94972C21.1185 10.3952 21.0486 11.0017 21.0486 11.456H22.0486H23.0486C23.0486 11.3129 23.0622 11.2351 23.0702 11.2044C23.0784 11.173 23.0705 11.2293 22.9994 11.3063L22.2646 10.628ZM22.0486 11.456H21.0486V20.744H22.0486H23.0486V11.456H22.0486ZM22.0486 20.744H21.0486C21.0486 21.1983 21.1185 21.8048 21.5298 22.2503L22.2646 21.572L22.9994 20.8937C23.0705 20.9707 23.0784 21.027 23.0702 20.9956C23.0622 20.9649 23.0486 20.8871 23.0486 20.744H22.0486ZM22.2646 21.572L21.5298 22.2503C21.9731 22.7305 22.619 22.806 23.0746 22.806V21.806V20.806C23.0077 20.806 22.956 20.8027 22.9175 20.7982C22.8788 20.7936 22.8585 20.7885 22.8526 20.7868C22.8377 20.7825 22.9137 20.8009 22.9994 20.8937L22.2646 21.572ZM46.042 6.506L46.7491 5.79889L46.7491 5.79889L46.042 6.506ZM49.642 10.106L48.9349 10.8131L48.9456 10.8238L48.9567 10.8342L49.642 10.106ZM40.948 10.7V9.7H39.948V10.7H40.948ZM35.692 26V25C35.6962 25 35.883 25.0017 36.0616 25.1804C36.2403 25.3591 36.242 25.5459 36.242 25.55H35.242H34.242C34.242 25.8541 34.3187 26.2659 34.6474 26.5946C34.9761 26.9233 35.3879 27 35.692 27V26ZM35.242 25.55H36.242V6.65H35.242H34.242V25.55H35.242ZM35.242 6.65H36.242C36.242 6.65414 36.2403 6.84093 36.0616 7.01961C35.883 7.19829 35.6962 7.2 35.692 7.2V6.2V5.2C35.3879 5.2 34.9761 5.27671 34.6474 5.60539C34.3187 5.93407 34.242 6.34585 34.242 6.65H35.242ZM35.692 6.2V7.2H45.322V6.2V5.2H35.692V6.2ZM45.322 6.2V7.2C45.3291 7.2 45.3308 7.20062 45.3284 7.20014C45.3258 7.19963 45.3219 7.19854 45.3179 7.19683C45.3139 7.19515 45.3128 7.19413 45.3148 7.19552C45.317 7.19702 45.3239 7.20205 45.3349 7.21311L46.042 6.506L46.7491 5.79889C46.3671 5.41682 45.8763 5.2 45.322 5.2V6.2ZM46.042 6.506L45.3349 7.21311L48.9349 10.8131L49.642 10.106L50.3491 9.39889L46.7491 5.79889L46.042 6.506ZM49.642 10.106L48.9567 10.8342C48.962 10.8393 48.9622 10.8404 48.9599 10.837C48.9574 10.8335 48.9541 10.828 48.9512 10.8211C48.9483 10.8144 48.9473 10.8097 48.9471 10.8087C48.9469 10.8079 48.948 10.8132 48.948 10.826H49.948H50.948C50.948 10.271 50.7385 9.76468 50.3274 9.3778L49.642 10.106ZM49.948 10.826H48.948V25.55H49.948H50.948V10.826H49.948ZM49.948 25.55H48.948C48.948 25.5459 48.9497 25.3591 49.1284 25.1804C49.3071 25.0017 49.4939 25 49.498 25V26V27C49.8022 27 50.214 26.9233 50.5426 26.5946C50.8713 26.2659 50.948 25.8541 50.948 25.55H49.948ZM49.498 26V25H44.692V26V27H49.498V26ZM44.692 26V25C44.6962 25 44.883 25.0017 45.0616 25.1804C45.2403 25.3591 45.242 25.5459 45.242 25.55H44.242H43.242C43.242 25.8541 43.3187 26.2659 43.6474 26.5946C43.9761 26.9233 44.3879 27 44.692 27V26ZM44.242 25.55H45.242V11.546H44.242H43.242V25.55H44.242ZM44.242 11.546H45.242C45.242 11.1099 45.1323 10.5991 44.7376 10.2044C44.343 9.80971 43.8322 9.7 43.396 9.7V10.7V11.7C43.4567 11.7 43.469 11.7079 43.4499 11.7016C43.426 11.6936 43.3751 11.6703 43.3234 11.6186C43.2718 11.5669 43.2485 11.5161 43.2405 11.4921C43.2341 11.473 43.242 11.4853 43.242 11.546H44.242ZM43.396 10.7V9.7H40.948V10.7V11.7H43.396V10.7ZM40.948 10.7H39.948V25.55H40.948H41.948V10.7H40.948ZM40.948 25.55H39.948C39.948 25.5459 39.9497 25.3591 40.1284 25.1804C40.3071 25.0017 40.4939 25 40.498 25V26V27C40.8022 27 41.214 26.9233 41.5426 26.5946C41.8713 26.2659 41.948 25.8541 41.948 25.55H40.948ZM40.498 26V25H35.692V26V27H40.498V26ZM57.9361 25.694L58.6432 24.9869L58.6432 24.9869L57.9361 25.694ZM54.3361 22.094L55.0432 21.3869L55.0325 21.3762L55.0215 21.3658L54.3361 22.094ZM54.3361 10.106L55.0215 10.8342L55.0325 10.8238L55.0432 10.8131L54.3361 10.106ZM57.9361 6.506L57.229 5.79889L57.229 5.79889L57.9361 6.506ZM62.1301 6.506L61.4019 7.19136L61.4123 7.20239L61.423 7.21311L62.1301 6.506ZM63.0301 7.406L62.323 8.11311L64.0301 9.82022V7.406H63.0301ZM64.1821 25.91L63.5419 26.6782L63.5705 26.7021L63.6009 26.7237L64.1821 25.91ZM63.9301 25.694L63.223 26.4011L63.2465 26.4246L63.2716 26.4466L63.9301 25.694ZM63.0301 24.794L63.7372 24.0869L63.0301 23.3798L62.323 24.0869L63.0301 24.794ZM62.1301 25.694L61.423 24.9869L61.4123 24.9976L61.4019 25.0086L62.1301 25.694ZM62.8141 21.572L62.0793 20.8937L62.0793 20.8937L62.8141 21.572ZM63.0301 10.394H64.0301V9.394H63.0301V10.394ZM59.9521 10.628L60.6869 11.3063L60.6869 11.3063L59.9521 10.628ZM59.9521 21.572L60.6869 20.8937L60.6869 20.8937L59.9521 21.572ZM58.6561 26V25C58.649 25 58.6473 24.9994 58.6498 24.9999C58.6523 25.0004 58.6562 25.0015 58.6602 25.0032C58.6642 25.0048 58.6653 25.0059 58.6633 25.0045C58.6611 25.003 58.6543 24.9979 58.6432 24.9869L57.9361 25.694L57.229 26.4011C57.6111 26.7832 58.1018 27 58.6561 27V26ZM57.9361 25.694L58.6432 24.9869L55.0432 21.3869L54.3361 22.094L53.629 22.8011L57.229 26.4011L57.9361 25.694ZM54.3361 22.094L55.0215 21.3658C55.0161 21.3607 55.0159 21.3596 55.0182 21.363C55.0207 21.3665 55.024 21.372 55.0269 21.3789C55.0298 21.3856 55.0309 21.3903 55.0311 21.3913C55.0312 21.3921 55.0301 21.3868 55.0301 21.374H54.0301H53.0301C53.0301 21.929 53.2397 22.4353 53.6507 22.8222L54.3361 22.094ZM54.0301 21.374H55.0301V10.826H54.0301H53.0301V21.374H54.0301ZM54.0301 10.826H55.0301C55.0301 10.8132 55.0312 10.8079 55.0311 10.8087C55.0309 10.8097 55.0298 10.8144 55.0269 10.8211C55.024 10.828 55.0207 10.8335 55.0182 10.837C55.0159 10.8404 55.0161 10.8393 55.0215 10.8342L54.3361 10.106L53.6507 9.3778C53.2397 9.76468 53.0301 10.271 53.0301 10.826H54.0301ZM54.3361 10.106L55.0432 10.8131L58.6432 7.21311L57.9361 6.506L57.229 5.79889L53.629 9.39889L54.3361 10.106ZM57.9361 6.506L58.6432 7.21311C58.6543 7.20205 58.6611 7.19702 58.6633 7.19552C58.6653 7.19413 58.6642 7.19515 58.6602 7.19683C58.6562 7.19854 58.6523 7.19963 58.6498 7.20014C58.6473 7.20062 58.649 7.2 58.6561 7.2V6.2V5.2C58.1018 5.2 57.6111 5.41682 57.229 5.79889L57.9361 6.506ZM58.6561 6.2V7.2H61.4101V6.2V5.2H58.6561V6.2ZM61.4101 6.2V7.2C61.4229 7.2 61.4282 7.20112 61.4274 7.20097C61.4264 7.20078 61.4217 7.19972 61.415 7.19683C61.4081 7.19393 61.4026 7.19063 61.3991 7.18815C61.3957 7.18578 61.3968 7.186 61.4019 7.19136L62.1301 6.506L62.8583 5.82063C62.4714 5.40957 61.9651 5.2 61.4101 5.2V6.2ZM62.1301 6.506L61.423 7.21311L62.323 8.11311L63.0301 7.406L63.7372 6.69889L62.8372 5.79889L62.1301 6.506ZM63.0301 7.406H64.0301V2.456H63.0301H62.0301V7.406H63.0301ZM63.0301 2.456H64.0301C64.0301 2.46014 64.0284 2.64693 63.8497 2.82561C63.671 3.00429 63.4842 3.006 63.4801 3.006V2.006V1.006C63.1759 1.006 62.7642 1.08271 62.4355 1.41139C62.1068 1.74007 62.0301 2.15185 62.0301 2.456H63.0301ZM63.4801 2.006V3.006H68.2861V2.006V1.006H63.4801V2.006ZM68.2861 2.006V3.006C68.282 3.006 68.0952 3.00429 67.9165 2.82561C67.7378 2.64693 67.7361 2.46014 67.7361 2.456H68.7361H69.7361C69.7361 2.15185 69.6594 1.74007 69.3307 1.41139C69.002 1.08271 68.5902 1.006 68.2861 1.006V2.006ZM68.7361 2.456H67.7361V25.55H68.7361H69.7361V2.456H68.7361ZM68.7361 25.55H67.7361C67.7361 25.5459 67.7378 25.3591 67.9165 25.1804C68.0952 25.0017 68.282 25 68.2861 25V26V27C68.5902 27 69.002 26.9233 69.3307 26.5946C69.6594 26.2659 69.7361 25.8541 69.7361 25.55H68.7361ZM68.2861 26V25H64.5421V26V27H68.2861V26ZM64.5421 26V25C64.5257 25 64.5408 24.9982 64.5776 25.0074C64.6158 25.0169 64.6852 25.0404 64.7633 25.0963L64.1821 25.91L63.6009 26.7237C63.9211 26.9525 64.2781 27 64.5421 27V26ZM64.1821 25.91L64.8223 25.1418C64.7582 25.0884 64.6805 25.0219 64.5886 24.9414L63.9301 25.694L63.2716 26.4466C63.3716 26.5341 63.462 26.6116 63.5419 26.6782L64.1821 25.91ZM63.9301 25.694L64.6372 24.9869L63.7372 24.0869L63.0301 24.794L62.323 25.5011L63.223 26.4011L63.9301 25.694ZM63.0301 24.794L62.323 24.0869L61.423 24.9869L62.1301 25.694L62.8372 26.4011L63.7372 25.5011L63.0301 24.794ZM62.1301 25.694L61.4019 25.0086C61.3968 25.014 61.3957 25.0142 61.3991 25.0119C61.4026 25.0094 61.4081 25.0061 61.415 25.0032C61.4217 25.0003 61.4264 24.9992 61.4274 24.999C61.4282 24.9989 61.4229 25 61.4101 25V26V27C61.9651 27 62.4714 26.7904 62.8583 26.3794L62.1301 25.694ZM61.4101 26V25H58.6561V26V27H61.4101V26ZM60.7621 21.806V22.806H62.0221V21.806V20.806H60.7621V21.806ZM62.0221 21.806V22.806C62.477 22.806 63.1098 22.726 63.5489 22.2503L62.8141 21.572L62.0793 20.8937C62.1609 20.8053 62.2339 20.7858 62.2247 20.7885C62.2211 20.7896 62.2035 20.7943 62.1681 20.7985C62.1329 20.8028 62.0849 20.806 62.0221 20.806V21.806ZM62.8141 21.572L63.5489 22.2503C63.9601 21.8048 64.0301 21.1983 64.0301 20.744H63.0301H62.0301C62.0301 20.8871 62.0165 20.9649 62.0085 20.9956C62.0003 21.027 62.0082 20.9707 62.0793 20.8937L62.8141 21.572ZM63.0301 20.744H64.0301V10.394H63.0301H62.0301V20.744H63.0301ZM63.0301 10.394V9.394H60.7621V10.394V11.394H63.0301V10.394ZM60.7621 10.394V9.394C60.3065 9.394 59.6605 9.46952 59.2173 9.94972L59.9521 10.628L60.6869 11.3063C60.6012 11.3991 60.5252 11.4175 60.5401 11.4132C60.546 11.4115 60.5663 11.4064 60.605 11.4018C60.6435 11.3973 60.6952 11.394 60.7621 11.394V10.394ZM59.9521 10.628L59.2173 9.94972C58.806 10.3952 58.7361 11.0017 58.7361 11.456H59.7361H60.7361C60.7361 11.3129 60.7497 11.2351 60.7577 11.2044C60.7659 11.173 60.758 11.2293 60.6869 11.3063L59.9521 10.628ZM59.7361 11.456H58.7361V20.744H59.7361H60.7361V11.456H59.7361ZM59.7361 20.744H58.7361C58.7361 21.1983 58.806 21.8048 59.2173 22.2503L59.9521 21.572L60.6869 20.8937C60.758 20.9707 60.7659 21.027 60.7577 20.9956C60.7497 20.9649 60.7361 20.8871 60.7361 20.744H59.7361ZM59.9521 21.572L59.2173 22.2503C59.6606 22.7305 60.3065 22.806 60.7621 22.806V21.806V20.806C60.6952 20.806 60.6435 20.8027 60.605 20.7982C60.5663 20.7936 60.546 20.7885 60.5401 20.7868C60.5252 20.7825 60.6012 20.8009 60.6869 20.8937L59.9521 21.572ZM76.7095 25.694L77.4166 24.9869L77.4166 24.9869L76.7095 25.694ZM73.1095 22.094L73.8166 21.3869L73.8059 21.3762L73.7949 21.3658L73.1095 22.094ZM78.5095 21.5H77.5095V22.5H78.5095V21.5ZM81.5155 21.5V22.5H82.5155V21.5H81.5155ZM87.2035 21.5H86.2035V22.5H87.2035V21.5ZM90.2095 21.5V22.5H91.2095V21.5H90.2095ZM95.6095 22.094L94.9242 21.3658L94.9131 21.3762L94.9024 21.3869L95.6095 22.094ZM92.0095 25.694L91.3024 24.9869L91.3024 24.9869L92.0095 25.694ZM86.4655 25.694L87.1937 25.0086L87.1833 24.9976L87.1726 24.9869L86.4655 25.694ZM84.0355 23.264V22.264H81.6213L83.3284 23.9711L84.0355 23.264ZM84.6835 23.264L85.3906 23.9711L87.0977 22.264H84.6835V23.264ZM82.2535 25.694L81.5464 24.9869L81.5357 24.9976L81.5253 25.0086L82.2535 25.694ZM77.4295 26V25C77.4224 25 77.4208 24.9994 77.4232 24.9999C77.4258 25.0004 77.4297 25.0015 77.4337 25.0032C77.4376 25.0048 77.4388 25.0059 77.4368 25.0045C77.4346 25.003 77.4277 24.9979 77.4166 24.9869L76.7095 25.694L76.0024 26.4011C76.3845 26.7832 76.8752 27 77.4295 27V26ZM76.7095 25.694L77.4166 24.9869L73.8166 21.3869L73.1095 22.094L72.4024 22.8011L76.0024 26.4011L76.7095 25.694ZM73.1095 22.094L73.7949 21.3658C73.7895 21.3607 73.7893 21.3596 73.7917 21.363C73.7942 21.3665 73.7975 21.372 73.8004 21.3789C73.8032 21.3856 73.8043 21.3903 73.8045 21.3913C73.8046 21.3921 73.8035 21.3868 73.8035 21.374H72.8035H71.8035C71.8035 21.929 72.0131 22.4353 72.4242 22.8222L73.1095 22.094ZM72.8035 21.374H73.8035V6.65H72.8035H71.8035V21.374H72.8035ZM72.8035 6.65H73.8035C73.8035 6.65414 73.8018 6.84093 73.6231 7.01961C73.4445 7.19829 73.2577 7.2 73.2535 7.2V6.2V5.2C72.9494 5.2 72.5376 5.27671 72.2089 5.60539C71.8802 5.93407 71.8035 6.34585 71.8035 6.65H72.8035ZM73.2535 6.2V7.2H78.0595V6.2V5.2H73.2535V6.2ZM78.0595 6.2V7.2C78.0554 7.2 77.8686 7.19829 77.6899 7.01961C77.5112 6.84093 77.5095 6.65414 77.5095 6.65H78.5095H79.5095C79.5095 6.34585 79.4328 5.93407 79.1041 5.60539C78.7755 5.27671 78.3637 5.2 78.0595 5.2V6.2ZM78.5095 6.65H77.5095V21.5H78.5095H79.5095V6.65H78.5095ZM78.5095 21.5V22.5H81.5155V21.5V20.5H78.5095V21.5ZM81.5155 21.5H82.5155V6.65H81.5155H80.5155V21.5H81.5155ZM81.5155 6.65H82.5155C82.5155 6.65414 82.5138 6.84093 82.3351 7.01961C82.1565 7.19829 81.9697 7.2 81.9655 7.2V6.2V5.2C81.6614 5.2 81.2496 5.27671 80.9209 5.60539C80.5922 5.93407 80.5155 6.34585 80.5155 6.65H81.5155ZM81.9655 6.2V7.2H86.7535V6.2V5.2H81.9655V6.2ZM86.7535 6.2V7.2C86.7494 7.2 86.5626 7.19829 86.3839 7.01961C86.2052 6.84093 86.2035 6.65414 86.2035 6.65H87.2035H88.2035C88.2035 6.34585 88.1268 5.93407 87.7981 5.60539C87.4695 5.27671 87.0577 5.2 86.7535 5.2V6.2ZM87.2035 6.65H86.2035V21.5H87.2035H88.2035V6.65H87.2035ZM87.2035 21.5V22.5H90.2095V21.5V20.5H87.2035V21.5ZM90.2095 21.5H91.2095V6.65H90.2095H89.2095V21.5H90.2095ZM90.2095 6.65H91.2095C91.2095 6.65414 91.2078 6.84093 91.0291 7.01961C90.8505 7.19829 90.6637 7.2 90.6595 7.2V6.2V5.2C90.3554 5.2 89.9436 5.27671 89.6149 5.60539C89.2862 5.93407 89.2095 6.34585 89.2095 6.65H90.2095ZM90.6595 6.2V7.2H95.4655V6.2V5.2H90.6595V6.2ZM95.4655 6.2V7.2C95.4614 7.2 95.2746 7.19829 95.0959 7.01961C94.9172 6.84093 94.9155 6.65414 94.9155 6.65H95.9155H96.9155C96.9155 6.34585 96.8388 5.93407 96.5101 5.60539C96.1815 5.27671 95.7697 5.2 95.4655 5.2V6.2ZM95.9155 6.65H94.9155V21.374H95.9155H96.9155V6.65H95.9155ZM95.9155 21.374H94.9155C94.9155 21.3868 94.9144 21.3921 94.9146 21.3913C94.9148 21.3903 94.9158 21.3856 94.9187 21.3789C94.9216 21.372 94.9249 21.3665 94.9274 21.363C94.9297 21.3596 94.9295 21.3608 94.9242 21.3658L95.6095 22.094L96.2949 22.8222C96.706 22.4353 96.9155 21.929 96.9155 21.374H95.9155ZM95.6095 22.094L94.9024 21.3869L91.3024 24.9869L92.0095 25.694L92.7166 26.4011L96.3166 22.8011L95.6095 22.094ZM92.0095 25.694L91.3024 24.9869C91.2914 24.9979 91.2845 25.003 91.2823 25.0045C91.2803 25.0059 91.2814 25.0048 91.2854 25.0032C91.2894 25.0015 91.2933 25.0004 91.2959 24.9999C91.2983 24.9994 91.2966 25 91.2895 25V26V27C91.8438 27 92.3346 26.7832 92.7166 26.4011L92.0095 25.694ZM91.2895 26V25H87.1855V26V27H91.2895V26ZM87.1855 26V25C87.1727 25 87.1675 24.9989 87.1682 24.999C87.1692 24.9992 87.1739 25.0003 87.1807 25.0032C87.1875 25.0061 87.193 25.0094 87.1965 25.0119C87.1999 25.0142 87.1988 25.014 87.1937 25.0086L86.4655 25.694L85.7373 26.3794C86.1242 26.7904 86.6305 27 87.1855 27V26ZM86.4655 25.694L87.1726 24.9869L84.7426 22.5569L84.0355 23.264L83.3284 23.9711L85.7584 26.4011L86.4655 25.694ZM84.0355 23.264V24.264H84.6835V23.264V22.264H84.0355V23.264ZM84.6835 23.264L83.9764 22.5569L81.5464 24.9869L82.2535 25.694L82.9606 26.4011L85.3906 23.9711L84.6835 23.264ZM82.2535 25.694L81.5253 25.0086C81.5203 25.014 81.5192 25.0142 81.5225 25.0119C81.526 25.0094 81.5316 25.0061 81.5384 25.0032C81.5452 25.0003 81.5499 24.9992 81.5509 24.999C81.5516 24.9989 81.5464 25 81.5335 25V26V27C82.0885 27 82.5948 26.7904 82.9817 26.3794L82.2535 25.694ZM81.5335 26V25H77.4295V26V27H81.5335V26ZM100.555 26V25C100.559 25 100.746 25.0017 100.925 25.1804C101.104 25.3591 101.105 25.5459 101.105 25.55H100.105H99.1053C99.1053 25.8541 99.182 26.2659 99.5107 26.5946C99.8394 26.9233 100.251 27 100.555 27V26ZM100.105 25.55H101.105V6.65H100.105H99.1053V25.55H100.105ZM100.105 6.65H101.105C101.105 6.65414 101.104 6.84093 100.925 7.01961C100.746 7.19829 100.559 7.2 100.555 7.2V6.2V5.2C100.251 5.2 99.8394 5.27671 99.5107 5.60539C99.182 5.93407 99.1053 6.34585 99.1053 6.65H100.105ZM100.555 6.2V7.2H105.343V6.2V5.2H100.555V6.2ZM105.343 6.2V7.2C105.339 7.2 105.152 7.19829 104.974 7.01961C104.795 6.84093 104.793 6.65414 104.793 6.65H105.793H106.793C106.793 6.34585 106.717 5.93407 106.388 5.60539C106.059 5.27671 105.647 5.2 105.343 5.2V6.2ZM105.793 6.65H104.793V25.55H105.793H106.793V6.65H105.793ZM105.793 25.55H104.793C104.793 25.5459 104.795 25.3591 104.974 25.1804C105.152 25.0017 105.339 25 105.343 25V26V27C105.647 27 106.059 26.9233 106.388 26.5946C106.717 26.2659 106.793 25.8541 106.793 25.55H105.793ZM105.343 26V25H100.555V26V27H105.343V26ZM100.465 4.706V3.706C100.499 3.706 100.709 3.71521 100.902 3.90889C101.096 4.10257 101.105 4.31185 101.105 4.346H100.105H99.1053C99.1053 4.62014 99.1745 5.00943 99.4882 5.32311C99.8019 5.63679 100.191 5.706 100.465 5.706V4.706ZM100.105 4.346H101.105V2.06H100.105H99.1053V4.346H100.105ZM100.105 2.06H101.105C101.105 2.09414 101.096 2.30343 100.902 2.49711C100.709 2.69079 100.499 2.7 100.465 2.7V1.7V0.7C100.191 0.7 99.8019 0.769213 99.4882 1.08289C99.1745 1.39657 99.1053 1.78585 99.1053 2.06H100.105ZM100.465 1.7V2.7H105.469V1.7V0.7H100.465V1.7ZM105.469 1.7V2.7C105.394 2.7 105.163 2.67434 104.969 2.45896C104.793 2.26362 104.793 2.06965 104.793 2.06H105.793H106.793C106.793 1.81035 106.739 1.43638 106.456 1.12103C106.154 0.785658 105.76 0.7 105.469 0.7V1.7ZM105.793 2.06H104.793V4.346H105.793H106.793V2.06H105.793ZM105.793 4.346H104.793C104.793 4.33634 104.793 4.14238 104.969 3.94703C105.163 3.73166 105.394 3.706 105.469 3.706V4.706V5.706C105.76 5.706 106.154 5.62034 106.456 5.28496C106.739 4.96962 106.793 4.59565 106.793 4.346H105.793ZM105.469 4.706V3.706H100.465V4.706V5.706H105.469V4.706ZM113.764 6.506L112.992 7.14171L113 7.15155L113.009 7.16118L113.764 6.506ZM115.528 8.54L114.773 9.19518L115.505 10.0392L116.263 9.21854L115.528 8.54ZM117.49 6.416L118.225 7.09454L118.227 7.09173L117.49 6.416ZM120.352 10.916L121.281 11.2874L121.292 11.2601L121.301 11.2322L120.352 10.916ZM120.154 11.114L119.6 10.282L119.58 10.2952L119.56 10.3094L120.154 11.114ZM115.69 14.408L115.096 13.6034L114.69 13.9031V14.408H115.69ZM110.434 26V25C110.438 25 110.625 25.0017 110.804 25.1804C110.983 25.3591 110.984 25.5459 110.984 25.55H109.984H108.984C108.984 25.8541 109.061 26.2659 109.39 26.5946C109.718 26.9233 110.13 27 110.434 27V26ZM109.984 25.55H110.984V6.65H109.984H108.984V25.55H109.984ZM109.984 6.65H110.984C110.984 6.65414 110.983 6.84093 110.804 7.01961C110.625 7.19829 110.438 7.2 110.434 7.2V6.2V5.2C110.13 5.2 109.718 5.27671 109.39 5.60539C109.061 5.93407 108.984 6.34585 108.984 6.65H109.984ZM110.434 6.2V7.2H113.17V6.2V5.2H110.434V6.2ZM113.17 6.2V7.2C113.129 7.2 113.078 7.18921 113.032 7.16547C112.99 7.14377 112.979 7.12534 112.992 7.14171L113.764 6.506L114.536 5.87029C114.212 5.47664 113.746 5.2 113.17 5.2V6.2ZM113.764 6.506L113.009 7.16118L114.773 9.19518L115.528 8.54L116.284 7.88481L114.52 5.85081L113.764 6.506ZM115.528 8.54L116.263 9.21854L118.225 7.09454L117.49 6.416L116.756 5.73746L114.794 7.86146L115.528 8.54ZM117.49 6.416L118.227 7.09173C118.204 7.11698 118.164 7.14949 118.109 7.17314C118.055 7.19636 118.012 7.2 117.994 7.2V6.2V5.2C117.524 5.2 117.084 5.37952 116.753 5.74027L117.49 6.416ZM117.994 6.2V7.2H119.938V6.2V5.2H117.994V6.2ZM119.938 6.2V7.2C119.934 7.2 119.747 7.19829 119.569 7.01961C119.39 6.84093 119.388 6.65414 119.388 6.65H120.388H121.388C121.388 6.34585 121.312 5.93407 120.983 5.60539C120.654 5.27671 120.242 5.2 119.938 5.2V6.2ZM120.388 6.65H119.388V10.52H120.388H121.388V6.65H120.388ZM120.388 10.52H119.388C119.388 10.5979 119.386 10.6466 119.383 10.6725C119.382 10.6848 119.382 10.6854 119.383 10.677C119.384 10.6724 119.386 10.6637 119.389 10.6515C119.391 10.6396 119.396 10.6219 119.404 10.5998L120.352 10.916L121.301 11.2322C121.382 10.9878 121.388 10.7042 121.388 10.52H120.388ZM120.352 10.916L119.424 10.5446C119.479 10.406 119.554 10.327 119.578 10.3034C119.605 10.2758 119.618 10.2695 119.6 10.282L120.154 11.114L120.709 11.946C120.845 11.8554 121.137 11.647 121.281 11.2874L120.352 10.916ZM120.154 11.114L119.56 10.3094L115.096 13.6034L115.69 14.408L116.284 15.2126L120.748 11.9186L120.154 11.114ZM115.69 14.408H114.69V25.55H115.69H116.69V14.408H115.69ZM115.69 25.55H114.69C114.69 25.5459 114.692 25.3591 114.871 25.1804C115.049 25.0017 115.236 25 115.24 25V26V27C115.544 27 115.956 26.9233 116.285 26.5946C116.614 26.2659 116.69 25.8541 116.69 25.55H115.69ZM115.24 26V25H110.434V26V27H115.24V26ZM126.315 6.506L125.543 7.14171L125.551 7.15155L125.56 7.16118L126.315 6.506ZM128.079 8.54L127.324 9.19518L128.056 10.0392L128.814 9.21854L128.079 8.54ZM130.041 6.416L130.776 7.09454L130.778 7.09173L130.041 6.416ZM132.903 10.916L133.831 11.2874L133.842 11.2601L133.852 11.2322L132.903 10.916ZM132.705 11.114L132.15 10.282L132.13 10.2952L132.111 10.3094L132.705 11.114ZM128.241 14.408L127.647 13.6034L127.241 13.9031V14.408H128.241ZM122.985 26V25C122.989 25 123.176 25.0017 123.355 25.1804C123.533 25.3591 123.535 25.5459 123.535 25.55H122.535H121.535C121.535 25.8541 121.612 26.2659 121.94 26.5946C122.269 26.9233 122.681 27 122.985 27V26ZM122.535 25.55H123.535V6.65H122.535H121.535V25.55H122.535ZM122.535 6.65H123.535C123.535 6.65414 123.533 6.84093 123.355 7.01961C123.176 7.19829 122.989 7.2 122.985 7.2V6.2V5.2C122.681 5.2 122.269 5.27671 121.94 5.60539C121.612 5.93407 121.535 6.34585 121.535 6.65H122.535ZM122.985 6.2V7.2H125.721V6.2V5.2H122.985V6.2ZM125.721 6.2V7.2C125.68 7.2 125.629 7.18921 125.583 7.16547C125.54 7.14377 125.53 7.12534 125.543 7.14171L126.315 6.506L127.087 5.87029C126.763 5.47664 126.297 5.2 125.721 5.2V6.2ZM126.315 6.506L125.56 7.16118L127.324 9.19518L128.079 8.54L128.834 7.88481L127.07 5.85081L126.315 6.506ZM128.079 8.54L128.814 9.21854L130.776 7.09454L130.041 6.416L129.306 5.73746L127.344 7.86146L128.079 8.54ZM130.041 6.416L130.778 7.09173C130.755 7.11698 130.715 7.14949 130.66 7.17314C130.606 7.19636 130.563 7.2 130.545 7.2V6.2V5.2C130.075 5.2 129.635 5.37952 129.304 5.74027L130.041 6.416ZM130.545 6.2V7.2H132.489V6.2V5.2H130.545V6.2ZM132.489 6.2V7.2C132.485 7.2 132.298 7.19829 132.119 7.01961C131.941 6.84093 131.939 6.65414 131.939 6.65H132.939H133.939C133.939 6.34585 133.862 5.93407 133.534 5.60539C133.205 5.27671 132.793 5.2 132.489 5.2V6.2ZM132.939 6.65H131.939V10.52H132.939H133.939V6.65H132.939ZM132.939 10.52H131.939C131.939 10.5979 131.936 10.6466 131.934 10.6725C131.933 10.6848 131.932 10.6854 131.934 10.677C131.935 10.6724 131.936 10.6637 131.939 10.6515C131.942 10.6396 131.947 10.6219 131.954 10.5998L132.903 10.916L133.852 11.2322C133.933 10.9878 133.939 10.7042 133.939 10.52H132.939ZM132.903 10.916L131.975 10.5446C132.03 10.406 132.105 10.327 132.128 10.3034C132.156 10.2758 132.169 10.2695 132.15 10.282L132.705 11.114L133.26 11.946C133.396 11.8554 133.688 11.647 133.831 11.2874L132.903 10.916ZM132.705 11.114L132.111 10.3094L127.647 13.6034L128.241 14.408L128.835 15.2126L133.299 11.9186L132.705 11.114ZM128.241 14.408H127.241V25.55H128.241H129.241V14.408H128.241ZM128.241 25.55H127.241C127.241 25.5459 127.243 25.3591 127.421 25.1804C127.6 25.0017 127.787 25 127.791 25V26V27C128.095 27 128.507 26.9233 128.836 26.5946C129.164 26.2659 129.241 25.8541 129.241 25.55H128.241ZM127.791 26V25H122.985V26V27H127.791V26ZM135.536 26V25C135.54 25 135.727 25.0017 135.905 25.1804C136.084 25.3591 136.086 25.5459 136.086 25.55H135.086H134.086C134.086 25.8541 134.162 26.2659 134.491 26.5946C134.82 26.9233 135.232 27 135.536 27V26ZM135.086 25.55H136.086V6.65H135.086H134.086V25.55H135.086ZM135.086 6.65H136.086C136.086 6.65414 136.084 6.84093 135.905 7.01961C135.727 7.19829 135.54 7.2 135.536 7.2V6.2V5.2C135.232 5.2 134.82 5.27671 134.491 5.60539C134.162 5.93407 134.086 6.34585 134.086 6.65H135.086ZM135.536 6.2V7.2H140.324V6.2V5.2H135.536V6.2ZM140.324 6.2V7.2C140.32 7.2 140.133 7.19829 139.954 7.01961C139.775 6.84093 139.774 6.65414 139.774 6.65H140.774H141.774C141.774 6.34585 141.697 5.93407 141.368 5.60539C141.04 5.27671 140.628 5.2 140.324 5.2V6.2ZM140.774 6.65H139.774V25.55H140.774H141.774V6.65H140.774ZM140.774 25.55H139.774C139.774 25.5459 139.775 25.3591 139.954 25.1804C140.133 25.0017 140.32 25 140.324 25V26V27C140.628 27 141.04 26.9233 141.368 26.5946C141.697 26.2659 141.774 25.8541 141.774 25.55H140.774ZM140.324 26V25H135.536V26V27H140.324V26ZM135.446 4.706V3.706C135.48 3.706 135.689 3.71521 135.883 3.90889C136.077 4.10257 136.086 4.31185 136.086 4.346H135.086H134.086C134.086 4.62014 134.155 5.00943 134.469 5.32311C134.782 5.63679 135.172 5.706 135.446 5.706V4.706ZM135.086 4.346H136.086V2.06H135.086H134.086V4.346H135.086ZM135.086 2.06H136.086C136.086 2.09414 136.077 2.30343 135.883 2.49711C135.689 2.69079 135.48 2.7 135.446 2.7V1.7V0.7C135.172 0.7 134.782 0.769213 134.469 1.08289C134.155 1.39657 134.086 1.78585 134.086 2.06H135.086ZM135.446 1.7V2.7H140.45V1.7V0.7H135.446V1.7ZM140.45 1.7V2.7C140.375 2.7 140.143 2.67434 139.949 2.45896C139.774 2.26362 139.774 2.06965 139.774 2.06H140.774H141.774C141.774 1.81035 141.72 1.43638 141.436 1.12103C141.134 0.785658 140.741 0.7 140.45 0.7V1.7ZM140.774 2.06H139.774V4.346H140.774H141.774V2.06H140.774ZM140.774 4.346H139.774C139.774 4.33634 139.774 4.14238 139.949 3.94703C140.143 3.73166 140.375 3.706 140.45 3.706V4.706V5.706C140.741 5.706 141.134 5.62034 141.436 5.28496C141.72 4.96962 141.774 4.59565 141.774 4.346H140.774ZM140.45 4.706V3.706H135.446V4.706V5.706H140.45V4.706ZM145.739 5.894L145.032 5.18689L145.021 5.1976L145.01 5.20864L145.739 5.894ZM149.339 2.294L148.653 1.5658L148.642 1.57618L148.632 1.58689L149.339 2.294ZM151.139 7.1V6.1H150.139V7.1H151.139ZM145.901 26V25C145.905 25 146.092 25.0017 146.27 25.1804C146.449 25.3591 146.451 25.5459 146.451 25.55H145.451H144.451C144.451 25.8541 144.527 26.2659 144.856 26.5946C145.185 26.9233 145.597 27 145.901 27V26ZM145.451 25.55H146.451V6.614H145.451H144.451V25.55H145.451ZM145.451 6.614H146.451C146.451 6.6032 146.452 6.59781 146.452 6.59666C146.452 6.59564 146.452 6.59658 146.451 6.59839C146.45 6.60018 146.45 6.60018 146.452 6.59794C146.453 6.59556 146.458 6.58926 146.467 6.57936L145.739 5.894L145.01 5.20864C144.647 5.59504 144.451 6.07904 144.451 6.614H145.451ZM145.739 5.894L146.446 6.60111L150.046 3.00111L149.339 2.294L148.632 1.58689L145.032 5.18689L145.739 5.894ZM149.339 2.294L150.024 3.0222C150.034 3.01289 150.04 3.0085 150.043 3.00696C150.045 3.00551 150.045 3.00576 150.043 3.00648C150.041 3.0072 150.04 3.00732 150.041 3.00713C150.043 3.00691 150.048 3.006 150.059 3.006V2.006V1.006C149.524 1.006 149.04 1.20213 148.653 1.5658L149.339 2.294ZM150.059 2.006V3.006H153.929V2.006V1.006H150.059V2.006ZM153.929 2.006V3.006C153.925 3.006 153.738 3.00429 153.559 2.82561C153.38 2.64693 153.379 2.46014 153.379 2.456H154.379H155.379C155.379 2.15185 155.302 1.74007 154.973 1.41139C154.645 1.08271 154.233 1.006 153.929 1.006V2.006ZM154.379 2.456H153.379V6.65H154.379H155.379V2.456H154.379ZM154.379 6.65H153.379C153.379 6.64585 153.38 6.45907 153.559 6.28039C153.738 6.10171 153.925 6.1 153.929 6.1V7.1V8.1C154.233 8.1 154.645 8.02329 154.973 7.69461C155.302 7.36593 155.379 6.95414 155.379 6.65H154.379ZM153.929 7.1V6.1H151.139V7.1V8.1H153.929V7.1ZM151.139 7.1H150.139V25.55H151.139H152.139V7.1H151.139ZM151.139 25.55H150.139C150.139 25.5459 150.14 25.3591 150.319 25.1804C150.498 25.0017 150.685 25 150.689 25V26V27C150.993 27 151.405 26.9233 151.733 26.5946C152.062 26.2659 152.139 25.8541 152.139 25.55H151.139ZM150.689 26V25H145.901V26V27H150.689V26ZM144.335 14.75V13.75C144.339 13.75 144.526 13.7517 144.704 13.9304C144.883 14.1091 144.885 14.2959 144.885 14.3H143.885H142.885C142.885 14.6041 142.961 15.0159 143.29 15.3446C143.619 15.6733 144.031 15.75 144.335 15.75V14.75ZM143.885 14.3H144.885V11.006H143.885H142.885V14.3H143.885ZM143.885 11.006H144.885C144.885 11.0101 144.883 11.1969 144.704 11.3756C144.526 11.5543 144.339 11.556 144.335 11.556V10.556V9.556C144.031 9.556 143.619 9.63271 143.29 9.96139C142.961 10.2901 142.885 10.7019 142.885 11.006H143.885ZM144.335 10.556V11.556H153.929V10.556V9.556H144.335V10.556ZM153.929 10.556V11.556C153.925 11.556 153.738 11.5543 153.559 11.3756C153.38 11.1969 153.379 11.0101 153.379 11.006H154.379H155.379C155.379 10.7019 155.302 10.2901 154.973 9.96139C154.645 9.63271 154.233 9.556 153.929 9.556V10.556ZM154.379 11.006H153.379V14.3H154.379H155.379V11.006H154.379ZM154.379 14.3H153.379C153.379 14.2959 153.38 14.1091 153.559 13.9304C153.738 13.7517 153.925 13.75 153.929 13.75V14.75V15.75C154.233 15.75 154.645 15.6733 154.973 15.3446C155.302 15.0159 155.379 14.6041 155.379 14.3H154.379ZM153.929 14.75V13.75H144.335V14.75V15.75H153.929V14.75ZM158.069 26V25C158.073 25 158.26 25.0017 158.438 25.1804C158.617 25.3591 158.619 25.5459 158.619 25.55H157.619H156.619C156.619 25.8541 156.695 26.2659 157.024 26.5946C157.353 26.9233 157.765 27 158.069 27V26ZM157.619 25.55H158.619V6.65H157.619H156.619V25.55H157.619ZM157.619 6.65H158.619C158.619 6.65414 158.617 6.84093 158.438 7.01961C158.26 7.19829 158.073 7.2 158.069 7.2V6.2V5.2C157.765 5.2 157.353 5.27671 157.024 5.60539C156.695 5.93407 156.619 6.34585 156.619 6.65H157.619ZM158.069 6.2V7.2H162.857V6.2V5.2H158.069V6.2ZM162.857 6.2V7.2C162.853 7.2 162.666 7.19829 162.487 7.01961C162.308 6.84093 162.307 6.65414 162.307 6.65H163.307H164.307C164.307 6.34585 164.23 5.93407 163.901 5.60539C163.573 5.27671 163.161 5.2 162.857 5.2V6.2ZM163.307 6.65H162.307V25.55H163.307H164.307V6.65H163.307ZM163.307 25.55H162.307C162.307 25.5459 162.308 25.3591 162.487 25.1804C162.666 25.0017 162.853 25 162.857 25V26V27C163.161 27 163.573 26.9233 163.901 26.5946C164.23 26.2659 164.307 25.8541 164.307 25.55H163.307ZM162.857 26V25H158.069V26V27H162.857V26ZM157.979 4.706V3.706C158.013 3.706 158.222 3.71521 158.416 3.90889C158.609 4.10257 158.619 4.31185 158.619 4.346H157.619H156.619C156.619 4.62014 156.688 5.00943 157.002 5.32311C157.315 5.63679 157.705 5.706 157.979 5.706V4.706ZM157.619 4.346H158.619V2.06H157.619H156.619V4.346H157.619ZM157.619 2.06H158.619C158.619 2.09414 158.609 2.30343 158.416 2.49711C158.222 2.69079 158.013 2.7 157.979 2.7V1.7V0.7C157.705 0.7 157.315 0.769213 157.002 1.08289C156.688 1.39657 156.619 1.78585 156.619 2.06H157.619ZM157.979 1.7V2.7H162.983V1.7V0.7H157.979V1.7ZM162.983 1.7V2.7C162.908 2.7 162.676 2.67434 162.482 2.45896C162.307 2.26362 162.307 2.06965 162.307 2.06H163.307H164.307C164.307 1.81035 164.253 1.43638 163.969 1.12103C163.667 0.785658 163.274 0.7 162.983 0.7V1.7ZM163.307 2.06H162.307V4.346H163.307H164.307V2.06H163.307ZM163.307 4.346H162.307C162.307 4.33634 162.307 4.14238 162.482 3.94703C162.676 3.73166 162.908 3.706 162.983 3.706V4.706V5.706C163.274 5.706 163.667 5.62034 163.969 5.28496C164.253 4.96962 164.307 4.59565 164.307 4.346H163.307ZM162.983 4.706V3.706H157.979V4.706V5.706H162.983V4.706ZM172.63 25.766L172.07 26.5949L172.078 26.5997L172.085 26.6044L172.63 25.766ZM169.696 23.786L168.847 24.3143L168.96 24.4955L169.136 24.6149L169.696 23.786ZM167.68 20.546L166.799 21.0201L166.814 21.0477L166.831 21.0743L167.68 20.546ZM167.464 20.24L166.757 20.9471L166.796 20.9863L166.839 21.0209L167.464 20.24ZM167.68 11.636L168.502 12.2052L168.521 12.1784L168.537 12.1505L167.68 11.636ZM169.516 8.576L168.949 7.7521L168.77 7.87522L168.658 8.0615L169.516 8.576ZM172.63 6.434L172.075 5.60195L172.069 5.60598L172.063 5.6101L172.63 6.434ZM172.954 6.272L173.27 7.22068L173.316 7.20542L173.36 7.18581L172.954 6.272ZM176.878 10.322L175.902 10.1051L175.89 10.1578L175.884 10.2116L176.878 10.322ZM176.716 10.574L177.163 11.4684L177.206 11.4472L177.246 11.422L176.716 10.574ZM174.664 11.6L174.217 10.7056L174.01 10.8089L173.87 10.9923L174.664 11.6ZM173.08 13.67L172.286 13.0623L172.08 13.3313V13.67H173.08ZM173.08 18.476H172.08V18.8525L172.328 19.1355L173.08 18.476ZM174.754 20.384L174.002 21.0435L174.097 21.1518L174.219 21.2289L174.754 20.384ZM176.716 21.626L176.181 22.4709L176.191 22.4773L176.201 22.4835L176.716 21.626ZM176.896 21.896H175.896V21.9583L175.904 22.02L176.896 21.896ZM173.35 26V25C173.338 25 173.284 24.9987 173.175 24.9276L172.63 25.766L172.085 26.6044C172.455 26.8453 172.882 27 173.35 27V26ZM172.63 25.766L173.189 24.9371L170.255 22.9571L169.696 23.786L169.136 24.6149L172.07 26.5949L172.63 25.766ZM169.696 23.786L170.545 23.2577L168.529 20.0177L167.68 20.546L166.831 21.0743L168.847 24.3143L169.696 23.786ZM167.68 20.546L168.56 20.0719C168.475 19.9126 168.322 19.6459 168.089 19.4591L167.464 20.24L166.839 21.0209C166.818 21.0036 166.801 20.9881 166.788 20.9761C166.776 20.964 166.767 20.9539 166.76 20.9468C166.748 20.9331 166.744 20.926 166.746 20.9292C166.748 20.9319 166.754 20.9405 166.763 20.9565C166.773 20.9724 166.785 20.9933 166.799 21.0201L167.68 20.546ZM167.464 20.24L168.171 19.5329C168.315 19.6768 168.356 19.8222 168.366 19.8625C168.378 19.9088 168.374 19.9217 168.374 19.88H167.374H166.374C166.374 20.0183 166.385 20.1812 166.426 20.3475C166.466 20.5078 166.553 20.7432 166.757 20.9471L167.464 20.24ZM167.374 19.88H168.374V12.32H167.374H166.374V19.88H167.374ZM167.374 12.32H168.374C168.374 12.2682 168.378 12.2641 168.372 12.2911C168.369 12.3062 168.361 12.341 168.343 12.3876C168.324 12.4337 168.29 12.506 168.227 12.5847L167.446 11.96L166.665 11.3353C166.499 11.5429 166.438 11.7654 166.411 11.8989C166.382 12.0459 166.374 12.1918 166.374 12.32H167.374ZM167.446 11.96L168.227 12.5847C168.299 12.4946 168.394 12.3607 168.502 12.2052L167.68 11.636L166.858 11.0668C166.749 11.2233 166.689 11.3054 166.665 11.3353L167.446 11.96ZM167.68 11.636L168.537 12.1505L170.373 9.09049L169.516 8.576L168.658 8.0615L166.822 11.1215L167.68 11.636ZM169.516 8.576L170.083 9.3999L173.197 7.2579L172.63 6.434L172.063 5.6101L168.949 7.7521L169.516 8.576ZM172.63 6.434L173.185 7.26605C173.229 7.23659 173.257 7.22496 173.27 7.22068L172.954 6.272L172.638 5.32332C172.434 5.39103 172.247 5.48741 172.075 5.60195L172.63 6.434ZM172.954 6.272L173.36 7.18581C173.332 7.19812 173.315 7.20152 173.313 7.20187C173.311 7.20216 173.322 7.2 173.35 7.2V6.2V5.2C173.097 5.2 172.817 5.23828 172.548 5.35819L172.954 6.272ZM173.35 6.2V7.2H176.464V6.2V5.2H173.35V6.2ZM176.464 6.2V7.2C176.46 7.2 176.273 7.19829 176.094 7.01961C175.916 6.84093 175.914 6.65414 175.914 6.65H176.914H177.914C177.914 6.34585 177.837 5.93407 177.508 5.60539C177.18 5.27671 176.768 5.2 176.464 5.2V6.2ZM176.914 6.65H175.914V10.016H176.914H177.914V6.65H176.914ZM176.914 10.016H175.914C175.914 10.029 175.912 10.0578 175.902 10.1051L176.878 10.322L177.854 10.5389C177.892 10.3702 177.914 10.195 177.914 10.016H176.914ZM176.878 10.322L175.884 10.2116C175.893 10.126 175.924 10.0242 175.987 9.92524C176.05 9.8275 176.125 9.76372 176.186 9.726L176.716 10.574L177.246 11.422C177.589 11.2078 177.824 10.8587 177.872 10.4324L176.878 10.322ZM176.716 10.574L176.269 9.67957L174.217 10.7056L174.664 11.6L175.111 12.4944L177.163 11.4684L176.716 10.574ZM174.664 11.6L173.87 10.9923L172.286 13.0623L173.08 13.67L173.874 14.2777L175.458 12.2077L174.664 11.6ZM173.08 13.67H172.08V18.476H173.08H174.08V13.67H173.08ZM173.08 18.476L172.328 19.1355L174.002 21.0435L174.754 20.384L175.506 19.7245L173.832 17.8165L173.08 18.476ZM174.754 20.384L174.219 21.2289L176.181 22.4709L176.716 21.626L177.251 20.7811L175.289 19.5391L174.754 20.384ZM176.716 21.626L176.201 22.4835C176.17 22.4649 176.091 22.411 176.019 22.3022C175.939 22.1832 175.896 22.0397 175.896 21.896H176.896H177.896C177.896 21.3324 177.55 20.9602 177.23 20.7685L176.716 21.626ZM176.896 21.896L175.904 22.02C175.91 22.0752 175.914 22.1298 175.914 22.184H176.914H177.914C177.914 22.0462 177.905 21.9088 177.888 21.772L176.896 21.896ZM176.914 22.184H175.914V25.55H176.914H177.914V22.184H176.914ZM176.914 25.55H175.914C175.914 25.5459 175.916 25.3591 176.094 25.1804C176.273 25.0017 176.46 25 176.464 25V26V27C176.768 27 177.18 26.9233 177.508 26.5946C177.837 26.2659 177.914 25.8541 177.914 25.55H176.914ZM176.464 26V25H173.35V26V27H176.464V26Z" fill="black" mask="url(#path-1-outside-1_1_6)"/>
</svg>
