<svg width="1512" height="223" viewBox="0 0 1512 223" fill="none" xmlns="http://www.w3.org/2000/svg">
<path d="M0 31L22.89 36.3C45.78 42 91.35 52 137.55 68.3C183.225 84 228.9 106 275.1 105.7C320.775 106 366.45 84 412.65 73.7C458.22 63 504 63 550.2 89.7C595.665 116 641.55 170 687.75 164.3C733.11 159 779.1 95 824.25 84.3C870.555 74 916.65 116 961.8 116.3C1008 116 1054.2 74 1099.35 47C1145.45 20 1191.75 10 1236.9 4.30001C1282.89 -0.999988 1328.25 -0.999988 1374.45 4.30001C1420.34 10 1465.8 20 1488.9 25.7L1512 31V223H1489.11C1466.22 223 1420.65 223 1374.45 223C1328.78 223 1283.1 223 1236.9 223C1191.23 223 1145.55 223 1099.35 223C1053.78 223 1008 223 961.8 223C916.335 223 870.45 223 824.25 223C778.89 223 732.9 223 687.75 223C641.445 223 595.35 223 550.2 223C504 223 457.8 223 412.65 223C366.555 223 320.25 223 275.1 223C229.11 223 183.75 223 137.55 223C91.665 223 46.2 223 23.1 223H0V31Z" fill="#54B4D3"/>
</svg>
